<svg xmlns="http://www.w3.org/2000/svg" viewBox="0 0 23.63 23.219">
  <defs>
    <style>
      .cls-1 {
        fill: none;
      }

      .cls-2, .cls-3 {
        stroke: none;
      }

      .cls-3 {
        fill: #8e8e93;
      }
    </style>
  </defs>
  <g id="合体_7" data-name="合体 7" class="cls-1" transform="translate(0 -2)">
    <path class="cls-2" d="M0,25.219a11.194,11.194,0,0,1,6.025-9.932,7.773,7.773,0,1,1,11.16-.208,11.2,11.2,0,0,1,6.445,10.14Z"/>
    <path class="cls-3" d="M 21.41204261779785 23.21890068054199 C 21.17686653137207 22.15822219848633 20.75440788269043 21.14555931091309 20.15773963928223 20.22520065307617 C 19.2175407409668 18.77495002746582 17.89599990844727 17.62153053283691 16.33596992492676 16.88960075378418 L 13.84737968444824 15.72203063964844 L 15.72412014007568 13.71352005004883 C 16.72616004943848 12.64111995697021 17.27799987792969 11.24172019958496 17.27799987792969 9.773099899291992 C 17.27799987792969 6.589690208435059 14.68810939788818 3.999800205230713 11.50469970703125 3.999800205230713 C 8.321290016174316 3.999800205230713 5.731400012969971 6.589690208435059 5.731400012969971 9.773099899291992 C 5.731400012969971 11.32184028625488 6.336479663848877 12.77614974975586 7.435189723968506 13.86812973022461 L 9.374579429626465 15.79563045501709 L 6.950150012969971 17.06001091003418 C 4.502281188964844 18.33661651611328 2.797746181488037 20.59917068481445 2.217982769012451 23.21890068054199 L 21.41204261779785 23.21890068054199 M 23.63039970397949 25.21890068054199 L -1.480102582718246e-07 25.21890068054199 C -1.480102582718246e-07 20.90117073059082 2.444779872894287 17.15399932861328 6.025330066680908 15.28668022155762 C 4.608629703521729 13.87866020202637 3.731399774551392 11.92825031280518 3.731399774551392 9.773099899291992 C 3.731399774551392 5.480100154876709 7.211699962615967 1.999800205230713 11.50469970703125 1.999800205230713 C 15.79769992828369 1.999800205230713 19.27799987792969 5.480100154876709 19.27799987792969 9.773099899291992 C 19.27799987792969 11.82422065734863 18.48345947265625 13.68984031677246 17.18545913696289 15.07898044586182 C 20.99345016479492 16.86557960510254 23.63039970397949 20.73439025878906 23.63039970397949 25.21890068054199 Z"/>
  </g>
</svg>
