<svg xmlns="http://www.w3.org/2000/svg" viewBox="0 0 19.664 26.219">
  <defs>
    <style>
      .cls-1 {
        fill: #fff;
      }

      .cls-2, .cls-4 {
        fill: #8e8e93;
      }

      .cls-3, .cls-4 {
        stroke: none;
      }
    </style>
  </defs>
  <g id="グループ化_375" data-name="グループ化 375" transform="translate(256.332 -1434.781)">
    <g id="パス_746" data-name="パス 746" class="cls-1" transform="translate(-256.332 1434.781)">
      <path class="cls-3" d="M 14.66406154632568 25.7187557220459 L 5.000001430511475 25.7187557220459 C 2.518691301345825 25.7187557220459 0.5000012516975403 23.70006561279297 0.5000012516975403 21.2187557220459 L 0.5000012516975403 5.000004768371582 C 0.5000012516975403 2.518695116043091 2.518691301345825 0.5000050067901611 5.000001430511475 0.5000050067901611 L 14.66406154632568 0.5000050067901611 C 15.61848163604736 0.5000050067901611 16.50338172912598 0.80628502368927 17.44886207580566 1.463894963264465 L 17.45190048217773 1.466004967689514 L 17.45497131347656 1.468075037002563 C 18.3056812286377 2.041254997253418 19.16406059265137 3.355654954910278 19.16406059265137 5.000004768371582 L 19.16406059265137 21.2187557220459 C 19.16406059265137 23.70006561279297 17.14537048339844 25.7187557220459 14.66406154632568 25.7187557220459 Z"/>
      <path class="cls-4" d="M 14.66406154632568 25.2187557220459 C 16.86967086791992 25.2187557220459 18.66406059265137 23.42436408996582 18.66406059265137 21.2187557220459 L 18.66406059265137 5.000004768371582 C 18.66406059265137 3.539414882659912 17.91648101806641 2.381925106048584 17.17559051513672 1.882735013961792 L 17.1694507598877 1.878594994544983 L 17.16337203979492 1.874374985694885 C 16.29394149780273 1.269665002822876 15.52313137054443 1.000005006790161 14.66406154632568 1.000005006790161 L 5.000001430511475 1.000005006790161 C 2.79439115524292 1.000005006790161 1.000001192092896 2.794394969940186 1.000001192092896 5.000004768371582 L 1.000001192092896 21.2187557220459 C 1.000001192092896 23.42436408996582 2.79439115524292 25.2187557220459 5.000001430511475 25.2187557220459 L 14.66406154632568 25.2187557220459 M 14.66406154632568 26.2187557220459 L 5.000001430511475 26.2187557220459 C 2.238571166992188 26.2187557220459 1.249999968422344e-06 23.98017501831055 1.249999968422344e-06 21.2187557220459 L 1.249999968422344e-06 5.000004768371582 C 1.249999968422344e-06 2.238574981689453 2.238571166992188 4.999999873689376e-06 5.000001430511475 4.999999873689376e-06 L 14.66406154632568 4.999999873689376e-06 C 15.7106409072876 4.999999873689376e-06 16.6821117401123 0.3215549886226654 17.73436164855957 1.053414940834045 C 18.80077171325684 1.771934986114502 19.66406059265137 3.285155057907104 19.66406059265137 5.000004768371582 L 19.66406059265137 21.2187557220459 C 19.66406059265137 23.98017501831055 17.42548179626465 26.2187557220459 14.66406154632568 26.2187557220459 Z"/>
    </g>
    <rect id="長方形_28" data-name="長方形 28" class="cls-2" width="14.622" height="17.143" rx="3" transform="translate(-253.811 1441.84)"/>
    <rect id="長方形_29" data-name="長方形 29" class="cls-2" width="8.067" height="2.521" rx="1.261" transform="translate(-253.811 1437.798)"/>
  </g>
</svg>
